<svg width="100" height="100" viewBox="0 0 100 100" fill="none" xmlns="http://www.w3.org/2000/svg">
<rect width="100" height="100" rx="50" fill="#F9F9F9"/>
<path d="M44.2 58.4286L57.9535 50.5L44.2 42.5714V58.4286ZM74.834 37.735C75.1785 38.9771 75.417 40.6421 75.576 42.7564C75.7615 44.8707 75.841 46.6943 75.841 48.28L76 50.5C76 56.2879 75.576 60.5429 74.834 63.265C74.1715 65.6436 72.6345 67.1764 70.2495 67.8371C69.004 68.1807 66.725 68.4186 63.227 68.5771C59.782 68.7621 56.6285 68.8414 53.7135 68.8414L49.5 69C38.3965 69 31.48 68.5771 28.7505 67.8371C26.3655 67.1764 24.8285 65.6436 24.166 63.265C23.8215 62.0229 23.583 60.3579 23.424 58.2436C23.2385 56.1293 23.159 54.3057 23.159 52.72L23 50.5C23 44.7121 23.424 40.4571 24.166 37.735C24.8285 35.3564 26.3655 33.8236 28.7505 33.1629C29.996 32.8193 32.275 32.5814 35.773 32.4229C39.218 32.2379 42.3715 32.1586 45.2865 32.1586L49.5 32C60.6035 32 67.52 32.4229 70.2495 33.1629C72.6345 33.8236 74.1715 35.3564 74.834 37.735Z" fill="#FF0000"/>
</svg>
